<mxfile host="Electron" agent="Mozilla/5.0 (Windows NT 10.0; Win64; x64) AppleWebKit/537.36 (KHTML, like Gecko) draw.io/28.0.6 Chrome/138.0.7204.100 Electron/37.2.3 Safari/537.36" version="28.0.6">
  <diagram name="Page-1" id="F0pb9SKeEHfzoeqtYIix">
    <mxGraphModel dx="1572" dy="1192" grid="1" gridSize="10" guides="1" tooltips="1" connect="1" arrows="1" fold="1" page="1" pageScale="1" pageWidth="850" pageHeight="1100" math="0" shadow="0">
      <root>
        <mxCell id="0" />
        <mxCell id="1" parent="0" />
        <mxCell id="n6w999XvDmliRwPITCNm-56" value="" style="rounded=1;whiteSpace=wrap;html=1;fillColor=none;dashed=1;fontSize=12;" parent="1" vertex="1">
          <mxGeometry x="570" y="280" width="460" height="552" as="geometry" />
        </mxCell>
        <mxCell id="n6w999XvDmliRwPITCNm-51" value="" style="rounded=1;whiteSpace=wrap;html=1;fillColor=none;dashed=1;fontSize=12;" parent="1" vertex="1">
          <mxGeometry x="50" y="280" width="460" height="552" as="geometry" />
        </mxCell>
        <mxCell id="n6w999XvDmliRwPITCNm-1" value="&lt;font style=&quot;color: light-dark(rgb(0, 0, 0), rgb(0, 0, 0));&quot;&gt;crm_cust_info&lt;/font&gt;" style="swimlane;fontStyle=0;childLayout=stackLayout;horizontal=1;startSize=30;horizontalStack=0;resizeParent=1;resizeParentMax=0;resizeLast=0;collapsible=1;marginBottom=0;whiteSpace=wrap;html=1;rounded=1;fillColor=#CBE2F0;strokeColor=#10739e;fontSize=12;" parent="1" vertex="1">
          <mxGeometry x="325" y="390" width="140" height="150" as="geometry" />
        </mxCell>
        <mxCell id="n6w999XvDmliRwPITCNm-2" value="cst_id" style="text;strokeColor=none;fillColor=none;align=left;verticalAlign=middle;spacingLeft=4;spacingRight=4;overflow=hidden;points=[[0,0.5],[1,0.5]];portConstraint=eastwest;rotatable=0;whiteSpace=wrap;html=1;fontSize=12;" parent="n6w999XvDmliRwPITCNm-1" vertex="1">
          <mxGeometry y="30" width="140" height="50" as="geometry" />
        </mxCell>
        <mxCell id="n6w999XvDmliRwPITCNm-35" value="cust_key" style="text;strokeColor=none;fillColor=none;align=left;verticalAlign=middle;spacingLeft=4;spacingRight=4;overflow=hidden;points=[[0,0.5],[1,0.5]];portConstraint=eastwest;rotatable=0;whiteSpace=wrap;html=1;fontSize=12;" parent="n6w999XvDmliRwPITCNm-1" vertex="1">
          <mxGeometry y="80" width="140" height="50" as="geometry" />
        </mxCell>
        <mxCell id="0ZPb001TIcPeV6UTvDpq-1" value="&lt;b&gt;&lt;font face=&quot;Lucida Console&quot; style=&quot;font-size: 14px;&quot;&gt;customer&lt;/font&gt;&lt;/b&gt;" style="text;html=1;strokeColor=#23445d;fillColor=#FF6666;align=center;verticalAlign=middle;whiteSpace=wrap;overflow=hidden;fontColor=#000000;" parent="n6w999XvDmliRwPITCNm-1" vertex="1">
          <mxGeometry y="130" width="140" height="20" as="geometry" />
        </mxCell>
        <mxCell id="n6w999XvDmliRwPITCNm-5" value="&lt;font&gt;Customer information&lt;/font&gt;" style="text;html=1;align=center;verticalAlign=middle;whiteSpace=wrap;rounded=0;fontSize=12;" parent="1" vertex="1">
          <mxGeometry x="325" y="360" width="140" height="30" as="geometry" />
        </mxCell>
        <mxCell id="n6w999XvDmliRwPITCNm-6" value="&lt;font style=&quot;color: light-dark(rgb(0, 0, 0), rgb(0, 0, 0));&quot;&gt;crm_prd_info&lt;/font&gt;" style="swimlane;fontStyle=0;childLayout=stackLayout;horizontal=1;startSize=30;horizontalStack=0;resizeParent=1;resizeParentMax=0;resizeLast=0;collapsible=1;marginBottom=0;whiteSpace=wrap;html=1;rounded=1;fillColor=#CBE2F0;strokeColor=#10739e;fontSize=12;" parent="1" vertex="1">
          <mxGeometry x="325" y="636" width="140" height="100" as="geometry" />
        </mxCell>
        <mxCell id="n6w999XvDmliRwPITCNm-7" value="prd_key" style="text;strokeColor=none;fillColor=none;align=left;verticalAlign=middle;spacingLeft=4;spacingRight=4;overflow=hidden;points=[[0,0.5],[1,0.5]];portConstraint=eastwest;rotatable=0;whiteSpace=wrap;html=1;fontSize=12;" parent="n6w999XvDmliRwPITCNm-6" vertex="1">
          <mxGeometry y="30" width="140" height="50" as="geometry" />
        </mxCell>
        <mxCell id="0ZPb001TIcPeV6UTvDpq-5" value="&lt;font style=&quot;color: rgb(0, 0, 0);&quot; face=&quot;Lucida Console&quot;&gt;&lt;span style=&quot;font-size: 14px;&quot;&gt;&lt;b&gt;products&lt;/b&gt;&lt;/span&gt;&lt;/font&gt;" style="text;html=1;strokeColor=#36393d;fillColor=#99CCFF;align=center;verticalAlign=middle;whiteSpace=wrap;overflow=hidden;" parent="n6w999XvDmliRwPITCNm-6" vertex="1">
          <mxGeometry y="80" width="140" height="20" as="geometry" />
        </mxCell>
        <mxCell id="n6w999XvDmliRwPITCNm-8" value="&lt;font&gt;Current &amp;amp; history product information&lt;/font&gt;" style="text;html=1;align=center;verticalAlign=middle;whiteSpace=wrap;rounded=0;fontSize=12;" parent="1" vertex="1">
          <mxGeometry x="325" y="601" width="140" height="30" as="geometry" />
        </mxCell>
        <mxCell id="n6w999XvDmliRwPITCNm-9" value="&lt;font style=&quot;color: light-dark(rgb(0, 0, 0), rgb(0, 0, 0));&quot;&gt;crm_sales_details&lt;/font&gt;" style="swimlane;fontStyle=0;childLayout=stackLayout;horizontal=1;startSize=30;horizontalStack=0;resizeParent=1;resizeParentMax=0;resizeLast=0;collapsible=1;marginBottom=0;whiteSpace=wrap;html=1;rounded=1;fillColor=#CBE2F0;strokeColor=#10739e;fontSize=12;" parent="1" vertex="1">
          <mxGeometry x="87" y="520" width="140" height="150" as="geometry" />
        </mxCell>
        <mxCell id="n6w999XvDmliRwPITCNm-14" value="cst_id" style="text;strokeColor=none;fillColor=none;align=left;verticalAlign=middle;spacingLeft=4;spacingRight=4;overflow=hidden;points=[[0,0.5],[1,0.5]];portConstraint=eastwest;rotatable=0;whiteSpace=wrap;html=1;fontSize=12;" parent="n6w999XvDmliRwPITCNm-9" vertex="1">
          <mxGeometry y="30" width="140" height="50" as="geometry" />
        </mxCell>
        <mxCell id="n6w999XvDmliRwPITCNm-10" value="prd_key" style="text;strokeColor=none;fillColor=none;align=left;verticalAlign=middle;spacingLeft=4;spacingRight=4;overflow=hidden;points=[[0,0.5],[1,0.5]];portConstraint=eastwest;rotatable=0;whiteSpace=wrap;html=1;fontSize=12;" parent="n6w999XvDmliRwPITCNm-9" vertex="1">
          <mxGeometry y="80" width="140" height="50" as="geometry" />
        </mxCell>
        <mxCell id="0ZPb001TIcPeV6UTvDpq-6" value="&lt;font style=&quot;color: rgb(0, 0, 0);&quot; face=&quot;Lucida Console&quot;&gt;&lt;span style=&quot;font-size: 14px;&quot;&gt;&lt;b&gt;sales&lt;/b&gt;&lt;/span&gt;&lt;/font&gt;" style="text;html=1;strokeColor=#36393d;fillColor=#66FFB3;align=center;verticalAlign=middle;whiteSpace=wrap;overflow=hidden;" parent="n6w999XvDmliRwPITCNm-9" vertex="1">
          <mxGeometry y="130" width="140" height="20" as="geometry" />
        </mxCell>
        <mxCell id="n6w999XvDmliRwPITCNm-11" value="&lt;font&gt;Transactional info of sales and orders&lt;/font&gt;" style="text;html=1;align=center;verticalAlign=middle;whiteSpace=wrap;rounded=0;fontSize=12;" parent="1" vertex="1">
          <mxGeometry x="87" y="488" width="140" height="30" as="geometry" />
        </mxCell>
        <mxCell id="n6w999XvDmliRwPITCNm-21" value="&lt;font style=&quot;color: light-dark(rgb(0, 0, 0), rgb(0, 0, 0));&quot;&gt;erp_cust_az12&lt;/font&gt;" style="swimlane;fontStyle=0;childLayout=stackLayout;horizontal=1;startSize=30;horizontalStack=0;resizeParent=1;resizeParentMax=0;resizeLast=0;collapsible=1;marginBottom=0;whiteSpace=wrap;html=1;rounded=1;fillColor=#fad7ac;strokeColor=#b46504;fontSize=12;" parent="1" vertex="1">
          <mxGeometry x="720" y="348" width="140" height="100" as="geometry" />
        </mxCell>
        <mxCell id="n6w999XvDmliRwPITCNm-22" value="cid" style="text;strokeColor=none;fillColor=none;align=left;verticalAlign=middle;spacingLeft=4;spacingRight=4;overflow=hidden;points=[[0,0.5],[1,0.5]];portConstraint=eastwest;rotatable=0;whiteSpace=wrap;html=1;fontSize=12;" parent="n6w999XvDmliRwPITCNm-21" vertex="1">
          <mxGeometry y="30" width="140" height="50" as="geometry" />
        </mxCell>
        <mxCell id="0ZPb001TIcPeV6UTvDpq-7" value="&lt;b&gt;&lt;font face=&quot;Lucida Console&quot; style=&quot;font-size: 14px;&quot;&gt;customer&lt;/font&gt;&lt;/b&gt;" style="text;html=1;strokeColor=#23445d;fillColor=#FF6666;align=center;verticalAlign=middle;whiteSpace=wrap;overflow=hidden;fontColor=#000000;" parent="n6w999XvDmliRwPITCNm-21" vertex="1">
          <mxGeometry y="80" width="140" height="20" as="geometry" />
        </mxCell>
        <mxCell id="n6w999XvDmliRwPITCNm-23" value="&lt;span&gt;Extra customer info (Birthdates)&lt;/span&gt;" style="text;html=1;align=center;verticalAlign=middle;whiteSpace=wrap;rounded=0;fontSize=12;" parent="1" vertex="1">
          <mxGeometry x="720" y="318" width="140" height="30" as="geometry" />
        </mxCell>
        <mxCell id="n6w999XvDmliRwPITCNm-27" value="&lt;font style=&quot;color: light-dark(rgb(0, 0, 0), rgb(0, 0, 0));&quot;&gt;erp_loc_a101&lt;/font&gt;" style="swimlane;fontStyle=0;childLayout=stackLayout;horizontal=1;startSize=30;horizontalStack=0;resizeParent=1;resizeParentMax=0;resizeLast=0;collapsible=1;marginBottom=0;whiteSpace=wrap;html=1;rounded=1;fillColor=#fad7ac;strokeColor=#b46504;fontSize=12;" parent="1" vertex="1">
          <mxGeometry x="720" y="518" width="140" height="100" as="geometry" />
        </mxCell>
        <mxCell id="n6w999XvDmliRwPITCNm-28" value="cid" style="text;strokeColor=none;fillColor=none;align=left;verticalAlign=middle;spacingLeft=4;spacingRight=4;overflow=hidden;points=[[0,0.5],[1,0.5]];portConstraint=eastwest;rotatable=0;whiteSpace=wrap;html=1;fontSize=12;" parent="n6w999XvDmliRwPITCNm-27" vertex="1">
          <mxGeometry y="30" width="140" height="50" as="geometry" />
        </mxCell>
        <mxCell id="0ZPb001TIcPeV6UTvDpq-8" value="&lt;b&gt;&lt;font face=&quot;Lucida Console&quot; style=&quot;font-size: 14px;&quot;&gt;customer&lt;/font&gt;&lt;/b&gt;" style="text;html=1;strokeColor=#23445d;fillColor=#FF6666;align=center;verticalAlign=middle;whiteSpace=wrap;overflow=hidden;fontColor=#000000;" parent="n6w999XvDmliRwPITCNm-27" vertex="1">
          <mxGeometry y="80" width="140" height="20" as="geometry" />
        </mxCell>
        <mxCell id="n6w999XvDmliRwPITCNm-29" value="&lt;span&gt;Location of customers&lt;/span&gt;&lt;div&gt;&lt;span&gt;(country)&lt;/span&gt;&lt;/div&gt;" style="text;html=1;align=center;verticalAlign=middle;whiteSpace=wrap;rounded=0;fontSize=12;" parent="1" vertex="1">
          <mxGeometry x="720" y="488" width="140" height="30" as="geometry" />
        </mxCell>
        <mxCell id="n6w999XvDmliRwPITCNm-31" value="&lt;font style=&quot;color: light-dark(rgb(0, 0, 0), rgb(0, 0, 0));&quot;&gt;erp_px_cat_g1v2&lt;/font&gt;" style="swimlane;fontStyle=0;childLayout=stackLayout;horizontal=1;startSize=30;horizontalStack=0;resizeParent=1;resizeParentMax=0;resizeLast=0;collapsible=1;marginBottom=0;whiteSpace=wrap;html=1;rounded=1;fillColor=#fad7ac;strokeColor=#b46504;fontSize=12;" parent="1" vertex="1">
          <mxGeometry x="720" y="688" width="140" height="80" as="geometry" />
        </mxCell>
        <mxCell id="n6w999XvDmliRwPITCNm-32" value="id" style="text;strokeColor=none;fillColor=none;align=left;verticalAlign=middle;spacingLeft=4;spacingRight=4;overflow=hidden;points=[[0,0.5],[1,0.5]];portConstraint=eastwest;rotatable=0;whiteSpace=wrap;html=1;fontSize=12;" parent="n6w999XvDmliRwPITCNm-31" vertex="1">
          <mxGeometry y="30" width="140" height="50" as="geometry" />
        </mxCell>
        <mxCell id="n6w999XvDmliRwPITCNm-33" value="&lt;span&gt;Location of customers&lt;/span&gt;&lt;div&gt;&lt;span&gt;(country)&lt;/span&gt;&lt;/div&gt;" style="text;html=1;align=center;verticalAlign=middle;whiteSpace=wrap;rounded=0;fontSize=12;" parent="1" vertex="1">
          <mxGeometry x="720" y="658" width="140" height="30" as="geometry" />
        </mxCell>
        <mxCell id="n6w999XvDmliRwPITCNm-36" style="edgeStyle=orthogonalEdgeStyle;rounded=0;orthogonalLoop=1;jettySize=auto;html=1;entryX=1;entryY=0.5;entryDx=0;entryDy=0;fontSize=12;" parent="1" source="n6w999XvDmliRwPITCNm-22" target="n6w999XvDmliRwPITCNm-35" edge="1">
          <mxGeometry relative="1" as="geometry" />
        </mxCell>
        <mxCell id="n6w999XvDmliRwPITCNm-45" style="edgeStyle=orthogonalEdgeStyle;rounded=0;orthogonalLoop=1;jettySize=auto;html=1;entryX=0;entryY=0.5;entryDx=0;entryDy=0;fontSize=12;" parent="1" source="n6w999XvDmliRwPITCNm-10" target="n6w999XvDmliRwPITCNm-7" edge="1">
          <mxGeometry relative="1" as="geometry" />
        </mxCell>
        <mxCell id="n6w999XvDmliRwPITCNm-46" style="edgeStyle=orthogonalEdgeStyle;rounded=0;orthogonalLoop=1;jettySize=auto;html=1;entryX=0;entryY=0.5;entryDx=0;entryDy=0;fontSize=12;" parent="1" source="n6w999XvDmliRwPITCNm-14" target="n6w999XvDmliRwPITCNm-2" edge="1">
          <mxGeometry relative="1" as="geometry" />
        </mxCell>
        <mxCell id="n6w999XvDmliRwPITCNm-47" style="edgeStyle=orthogonalEdgeStyle;rounded=0;orthogonalLoop=1;jettySize=auto;html=1;entryX=1;entryY=0.5;entryDx=0;entryDy=0;fontSize=12;" parent="1" source="n6w999XvDmliRwPITCNm-28" target="n6w999XvDmliRwPITCNm-35" edge="1">
          <mxGeometry relative="1" as="geometry" />
        </mxCell>
        <mxCell id="n6w999XvDmliRwPITCNm-49" style="edgeStyle=orthogonalEdgeStyle;rounded=0;orthogonalLoop=1;jettySize=auto;html=1;entryX=1;entryY=0.5;entryDx=0;entryDy=0;fontSize=12;" parent="1" source="n6w999XvDmliRwPITCNm-32" target="n6w999XvDmliRwPITCNm-7" edge="1">
          <mxGeometry relative="1" as="geometry" />
        </mxCell>
        <mxCell id="n6w999XvDmliRwPITCNm-52" value="&lt;font style=&quot;font-size: 24px;&quot; face=&quot;Lucida Console&quot;&gt;CRM&lt;/font&gt;" style="rounded=1;whiteSpace=wrap;html=1;fillColor=#bac8d3;strokeColor=#23445d;fontStyle=1;fontColor=light-dark(#000000,#000000);fontSize=12;" parent="1" vertex="1">
          <mxGeometry x="207.5" y="250" width="145" height="50" as="geometry" />
        </mxCell>
        <mxCell id="n6w999XvDmliRwPITCNm-55" value="&lt;h3&gt;&lt;u style=&quot;&quot;&gt;&lt;font face=&quot;Helvetica&quot; style=&quot;font-size: 42px;&quot;&gt;Integration Model&lt;/font&gt;&lt;/u&gt;&lt;/h3&gt;" style="text;html=1;align=center;verticalAlign=middle;whiteSpace=wrap;rounded=0;fontSize=35;fontStyle=1" parent="1" vertex="1">
          <mxGeometry x="325" y="140" width="435" height="60" as="geometry" />
        </mxCell>
        <mxCell id="n6w999XvDmliRwPITCNm-61" value="&lt;font style=&quot;color: light-dark(rgb(0, 0, 0), rgb(0, 0, 0)); font-size: 24px;&quot; face=&quot;Lucida Console&quot;&gt;ERP&lt;/font&gt;" style="rounded=1;whiteSpace=wrap;html=1;fillColor=#fad7ac;strokeColor=#b46504;fontStyle=1;fontSize=12;" parent="1" vertex="1">
          <mxGeometry x="727.5" y="250" width="145" height="50" as="geometry" />
        </mxCell>
        <mxCell id="0ZPb001TIcPeV6UTvDpq-4" value="&lt;font face=&quot;Lucida Console&quot;&gt;&lt;span style=&quot;font-size: 14px;&quot;&gt;&lt;b&gt;products&lt;/b&gt;&lt;/span&gt;&lt;/font&gt;" style="text;html=1;strokeColor=#000000;fillColor=#99CCFF;align=center;verticalAlign=middle;whiteSpace=wrap;overflow=hidden;" parent="1" vertex="1">
          <mxGeometry x="720" y="760" width="140" height="20" as="geometry" />
        </mxCell>
      </root>
    </mxGraphModel>
  </diagram>
</mxfile>
